<svg xmlns="http://www.w3.org/2000/svg" viewBox="0 0 256 256" width="256" height="256">
    <g transform="translate(50, 50)">
        <path fill="#FFFDF4" d="M78,8C39.3,8 8,39.3 8,78s31.3,70 70,70 70,-31.3 70,-70S116.7,8 78,8z" />
        <path stroke="#C5A059" stroke-width="4" fill="transparent" d="M78,15C43.2,15 15,43.2 15,78s28.2,63 63,63 63,-28.2 63,-63S112.8,15 78,15z" />
        <path fill="#C5A059" d="M48,70C51,49 63,36 78,36s27,13 30,34v6H48z" />
        <path fill="#004D40" d="M43,74h70v43H43z" />
        <path fill="#00332B" d="M31,59h13v58H31zM112,59h13v58h-13z" />
        <path fill="#C5A059" d="M33,48h9v11h-9zM114,48h9v11h-9z" />
        <path fill="#FFFDF4" d="M66,117V91c0,-7 5,-13 12,-13s12,6 12,13v26z" />
        <path fill="#FFFDF4" d="M39,117c13,-8 26,-8 39,2v17c-13,-9 -26,-9 -39,-1zM78,119c13,-10 26,-10 39,-2v18c-13,-8 -26,-8 -39,1z" />
        <path stroke="#C5A059" stroke-width="3" stroke-linecap="round" fill="transparent" d="M50,126c8,-3 15,-2.5 22,1M85,127c7,-3.5 15,-3.5 22,-1" />
    </g>
</svg>
